[img]http://img534.imageshack.us/img534/4518/thehobbittheunexpectedj.jpg[/img]

[b][size=200][color=black]PLOT[/color][/size][/b]

[code]A younger and more reluctant Hobbit, Bilbo Baggins, sets 
out on an "unexpected journey" to the Lonely Mountain with a spirited 
group of Dwarves to reclaim their stolen mountain home from a dragon 
named Smaug. [/code]

[b][size=200][color=black]IMDB[/color][/size][/b]

[code]http://www.imdb.com/title/tt0903624/[/code]

[b][size=200][color=black]MOVIE INFO[/color][/size][/b]

[code]The Hobbit An Unexpected Journey [2012] BRRip x264 AAC-V3nom

Format : MPEG-4
Format profile : Base Media / Version 2
Codec ID : mp42
File size : 491 MiB
Duration : 2h 49mn
Overall bit rate mode : Variable
Overall bit rate : 405 Kbps
Encoded date : UTC 2013-02-28 12:45:57
Tagged date : UTC 2013-02-28 13:43:20

Video
ID : 1
Format : AVC
Format/Info : Advanced Video Codec
Format profile : Main@L2.1
Format settings, CABAC : Yes
Format settings, ReFrames : 4 frames
Codec ID : avc1
Codec ID/Info : Advanced Video Coding
Duration : 2h 49mn
Bit rate mode : Variable
Bit rate : 312 Kbps
Width : 640 pixels
Height : 272 pixels
Display aspect ratio : 2.40:1
Frame rate mode : Variable
Frame rate : 23.976 fps
Minimum frame rate : 23.810 fps
Maximum frame rate : 24.390 fps
Color space : YUV
Chroma subsampling : 4:2:0
Bit depth : 8 bits
Scan type : Progressive
Bits/(Pixel*Frame) : 0.075
Stream size : 368 MiB (75%)
Writing library : x264 core 112

Audio
ID : 2
Format : AAC
Format/Info : Advanced Audio Codec
Format profile : LC
Codec ID : 40
Duration : 2h 49mn
Bit rate mode : Variable
Bit rate : 96.0 Kbps
Maximum bit rate : 158 Kbps
Channel(s) : 2 channels
Channel positions : Front: L R
Sampling rate : 48.0 KHz
Compression mode : Lossy
Delay relative to video : 83ms
Stream size : 116 MiB (24%)
Language : English
Encoded date : UTC 2013-02-28 12:45:57
Tagged date : UTC 2013-02-28 13:43:19[/code]

[b][size=200][color=black]SOURCE[/color][/size][/b]

[code]The Hobbit An Unexpected Journey (2012) BluRay 720p x264 Ganool(Thanks)[/code]

[b][size=200][color=black]SCREENSHOTS[/color][/size][/b]

[img]http://img4.imageshack.us/img4/8168/thehobbitanunexpectedjoq.jpg[/img]

[img]http://kastatic.com/i2/users/133df62bbf28e62494bb17fe11078f1a.gif[/img][img]http://kastatic.com/i2/users/133df62bbf28e62494bb17fe11078f1a.gif[/img]